<svg width="99" height="112" viewBox="0 0 99 112" fill="none" xmlns="http://www.w3.org/2000/svg">
<path d="M8.10516 46.8734L38.8466 15.1928C39.8683 14.14 36.1165 10.4425 35.09 11.4364L3.40958 42.1778C2.09339 43.455 2.06175 45.5572 3.33897 46.8734C4.61605 48.1895 6.71835 48.2213 8.03454 46.9439C8.05498 46.9243 8.08546 46.8935 8.10516 46.8734Z" fill="#FFA200"/>
<path d="M36.3856 12.4923C36.0489 12.2589 35.7632 12.1269 35.595 12.1027L3.98722 42.7735C2.97796 43.7528 2.97317 45.3796 4.00318 46.3638L4.01965 46.346C3.38062 45.6874 3.90649 44.0085 4.56529 43.3693C4.74324 43.1965 36.5122 12.3695 36.3856 12.4923Z" fill="#FFCA10"/>
<path d="M38.3835 13.2869C38.3573 13.3139 6.90624 45.7263 6.87921 45.7525C6.22818 46.3842 4.02723 47.5345 3.38043 46.868L3.36816 46.9015C4.64778 48.1893 6.77006 48.2366 8.10583 46.8735L38.8472 15.1929C39.229 14.7994 38.944 14.0363 38.3835 13.2869Z" fill="#FF6C00"/>
<path d="M13.0254 5.38163C30.5568 5.54649 44.7355 19.7252 44.9004 37.2566C38.4688 23.1732 27.1088 11.8132 13.0254 5.38163Z" fill="#A3AAB8"/>
<path d="M38.6217 17.3321L33.2567 22.8609C32.9986 23.1269 32.5727 23.13 32.3106 22.8681L27.4151 17.9726C27.1532 17.7105 27.1563 17.2845 27.4223 17.0265L32.9511 11.6615C33.2116 11.4089 33.6266 11.412 33.8831 11.6685L38.6147 16.4001C38.8712 16.6566 38.8744 17.0716 38.6217 17.3321Z" fill="#949BAA"/>
<path d="M38.6212 17.3321C38.8739 17.0716 38.8707 16.6566 38.6142 16.4001L37.6679 15.4538L31.3779 21.9357L32.3101 22.8681C32.5722 23.13 32.9981 23.1269 33.2562 22.8609L38.6212 17.3321Z" fill="#6A707E"/>
<path d="M34.115 13.3088L33.4106 12.6043L28.3584 17.5068L29.0628 18.2112L34.115 13.3088Z" fill="#C3C9D7"/>
<path d="M76.7754 74.4441L68.6406 34.7664L48.8848 44.5613L48.3867 50.2059L46.2285 48.2137L34.2754 74.4441L13.0254 85.0691H87.4004L76.7754 74.4441Z" fill="#B7BAC1"/>
<path d="M39.5889 79.7566L32.1514 85.0691H87.4014L76.7764 74.4441L68.6416 34.7664L50.2139 47.8816L39.5889 79.7566Z" fill="#BFC4CE"/>
<path d="M73.2348 85.0691H87.4014L76.7764 74.4441L68.6416 34.7664L71.4639 79.7566L73.2348 85.0691Z" fill="#B5B9C0"/>
<path d="M46.2295 48.2137L46.1805 48.3211L48.2217 53.5261L49.2178 59.0047L45.8975 63.3211L47.8896 68.1355L45.5654 71.7878L48.5537 68.1355L46.8936 63.4871L50.5459 59.5027L49.5671 53.6296L54.6963 54.0242L57.6846 59.8347L63.8271 59.5027L66.8154 63.3211L64.4912 58.5066H58.6807L56.1904 52.5301L49.7158 51.2019L48.8857 44.5613L48.3877 50.2058L46.2295 48.2137Z" fill="#8E929A"/>
<path d="M41.748 49.0437L32.5221 58.5974C32.1884 58.2753 31.872 57.9358 31.574 57.5807C31.2759 57.2255 30.9966 56.8549 30.7373 56.4704L41.748 49.0437Z" fill="#FFCA10"/>
<path d="M39.5895 42.5693L26.3164 42.1058C26.338 41.4877 26.4027 40.872 26.5101 40.2631C26.6176 39.6539 26.7673 39.0533 26.9584 38.4651L39.5895 42.5693Z" fill="#FFA200"/>
<path d="M57.6846 35.0986L66.5968 21.8858C67.0581 22.1969 67.5027 22.5321 67.9291 22.8897C68.3554 23.2475 68.7626 23.6271 69.1491 24.0274L57.6846 35.0986Z" fill="#FFA200"/>
<path d="M49.8814 34.7666L48.4932 21.5581C48.9544 21.5096 49.4177 21.4854 49.8814 21.4854C50.3451 21.4854 50.8084 21.5096 51.2698 21.5581L49.8814 34.7666Z" fill="#FFCA10"/>
<path d="M29.6279 67.1394C29.6279 72.2739 25.4656 76.4363 20.3311 76.4363C15.1965 76.4363 11.0342 72.2739 11.0342 67.1394C11.0342 62.0049 15.1965 57.8426 20.3311 57.8426C25.4656 57.8426 29.6279 62.0049 29.6279 67.1394Z" fill="#FFCA10"/>
<path d="M25.9658 61.5047C29.0778 64.6166 29.0778 69.6622 25.9658 72.7741C22.8538 75.8862 17.8083 75.8862 14.6963 72.7741C11.5843 69.6622 11.5843 64.6166 14.6963 61.5047C17.8083 58.3927 22.8538 58.3927 25.9658 61.5047Z" fill="#FFA200"/>
<path d="M12.8604 67.6374C12.8604 63.2363 16.428 59.6686 20.8291 59.6686C22.903 59.6686 24.7912 60.4613 26.2088 61.7596C24.7521 60.1687 22.6583 59.1706 20.3311 59.1706C15.93 59.1706 12.3623 62.7382 12.3623 67.1393C12.3623 69.4665 13.3604 71.5603 14.9513 73.0171C13.6531 71.5995 12.8604 69.7112 12.8604 67.6374Z" fill="#FF6C00"/>
<path d="M22.5379 65.6153C22.7244 64.8556 22.4437 64.0449 22.0529 63.654C20.8648 62.4661 19.6274 62.7185 18.3499 63.7489L17.3078 62.7068L16.5028 63.5117L17.5092 64.5181C17.2917 64.7307 17.03 64.9915 16.7017 65.3206L15.6978 64.3167L14.8929 65.1217L15.8982 66.1269C15.604 66.4219 15.2723 66.7546 14.8953 67.1317C14.7239 67.303 14.5584 67.4824 14.7233 67.6473L15.6938 68.1729L16.361 67.5059L20.961 72.1056L20.2937 72.7729L20.8194 73.7432C20.9796 73.9036 21.1527 73.7537 21.335 73.5714C21.7074 73.199 22.0402 72.8667 22.3396 72.5683L23.345 73.5737L24.15 72.7689L23.1457 71.7645C23.4627 71.4484 23.7268 71.1844 23.9502 70.9593L24.955 71.9639L25.7598 71.1589L24.743 70.142C26.0894 68.6902 26.6741 67.3654 25.2676 65.9589C24.4335 65.1249 23.3207 65.1152 22.5379 65.6153ZM17.6551 66.2118C18.5614 65.3055 19.751 63.8796 20.8295 64.958C21.898 66.0265 20.6117 67.036 19.5455 68.1022L17.6551 66.2118ZM22.2551 70.8115L20.3442 68.9007C21.5365 67.7084 22.8034 66.0828 23.9534 67.2328C25.0594 68.3388 23.3694 69.6971 22.2551 70.8115Z" fill="#FF6C00"/>
<path d="M22.0399 65.1175C22.2263 64.3578 21.9456 63.5471 21.5548 63.1562C20.3668 61.9683 19.1293 62.2207 17.8518 63.2511L16.8097 62.209L16.0047 63.0139L17.0111 64.0203C16.7936 64.2329 16.532 64.4937 16.2036 64.8228L15.1997 63.8189L14.3949 64.6239L15.4001 65.6291C15.1059 65.9241 14.7742 66.2568 14.3972 66.6339C14.2259 66.8052 14.0604 66.9846 14.2252 67.1495L15.1957 67.6751L15.863 67.008L20.4629 71.6078L19.7957 72.2751L20.3213 73.2454C20.4815 73.4058 20.6547 73.2559 20.837 73.0736C21.2093 72.7012 21.5422 72.3689 21.8415 72.0705L22.8469 73.0759L23.6519 72.2711L22.6477 71.2667C22.9646 70.9506 23.2287 70.6866 23.4522 70.4615L24.4569 71.4661L25.2618 70.6611L24.2449 69.6442C25.5913 68.1924 26.176 66.8676 24.7695 65.4611C23.9355 64.6271 22.8227 64.6174 22.0399 65.1175ZM17.1571 65.714C18.0633 64.8077 19.253 63.3818 20.3314 64.4602C21.3999 65.5287 20.1136 66.5382 19.0475 67.6044L17.1571 65.714ZM21.757 70.3137L19.8462 68.4029C21.0385 67.2106 22.3054 65.585 23.4554 66.735C24.5613 67.8409 22.8713 69.1993 21.757 70.3137Z" fill="#FFCA10"/>
<path d="M82.4209 13.5166C82.4209 17.1841 79.4477 20.1572 75.7803 20.1572C72.1128 20.1572 69.1396 17.1841 69.1396 13.5166C69.1396 9.84916 72.1128 6.876 75.7803 6.876C79.4477 6.876 82.4209 9.84916 82.4209 13.5166Z" fill="#FFCA10"/>
<path d="M79.5367 17.2728C77.4621 19.3475 74.0985 19.3475 72.0238 17.2728C69.9491 15.1981 69.9491 11.8345 72.0238 9.75998C74.0985 7.68528 77.4621 7.68528 79.5367 9.75998C81.6114 11.8345 81.6114 15.1981 79.5367 17.2728Z" fill="#FFA200"/>
<path d="M72.3558 10.0921C74.3747 8.07304 77.614 8.01958 79.6985 9.93026C79.6459 9.87281 79.5924 9.8157 79.5367 9.76009C77.4621 7.6854 74.0985 7.6854 72.0238 9.76009C69.9491 11.8346 69.9491 15.1983 72.0238 17.2729C72.0794 17.3287 72.1365 17.3822 72.194 17.4348C70.2833 15.3503 70.3367 12.111 72.3558 10.0921Z" fill="#FF6C00"/>
<path d="M77.2349 14.7977C77.657 14.9013 78.1074 14.7454 78.3245 14.5283C78.9846 13.8682 78.8443 13.1807 78.2719 12.4712L78.8508 11.8921L78.4035 11.4449L77.8445 12.004C77.7263 11.8832 77.5814 11.7379 77.3986 11.5555L77.9564 10.9976L77.5092 10.5506L76.9507 11.109C76.7867 10.9455 76.6021 10.7614 76.3926 10.5517C76.2973 10.4566 76.1977 10.3646 76.106 10.4563L75.814 10.9955L76.1847 11.366L73.6292 13.9217L73.2585 13.551L72.7195 13.843C72.6303 13.932 72.7137 14.0283 72.8149 14.1294C73.0218 14.3362 73.2064 14.5213 73.3721 14.6875L72.8136 15.2461L73.2607 15.6934L73.8187 15.1354C73.9943 15.3114 74.1411 15.4581 74.2661 15.5823L73.7079 16.1405L74.1552 16.5877L74.7201 16.0228C75.5266 16.7708 76.2626 17.0956 77.044 16.3143C77.5074 15.8508 77.5129 15.2327 77.2349 14.7977ZM76.9036 12.085C77.4071 12.5886 78.1992 13.2495 77.6002 13.8486C77.0065 14.4421 76.4455 13.7276 75.8534 13.1354L76.9036 12.085ZM74.3481 14.6405L75.4096 13.579C76.0722 14.2414 76.9753 14.9452 76.3365 15.5841C75.7219 16.1986 74.9673 15.2598 74.3481 14.6405Z" fill="#FF6C00"/>
<path d="M76.9039 14.4657C77.3259 14.5693 77.7763 14.4134 77.9934 14.1963C78.6535 13.5362 78.5132 12.8487 77.9408 12.1392L78.5197 11.5601L78.0725 11.1129L77.5135 11.672C77.3953 11.5511 77.2504 11.4059 77.0676 11.2234L77.6254 10.6656L77.1781 10.2185L76.6197 10.777C76.4556 10.6135 76.271 10.4294 76.0615 10.2197C75.9662 10.1246 75.8666 10.0326 75.775 10.1242L75.483 10.6635L75.8537 11.034L73.2982 13.5896L72.9275 13.2189L72.3884 13.511C72.2993 13.5999 72.3826 13.6962 72.4839 13.7973C72.6907 14.0042 72.8753 14.1893 73.041 14.3555L72.4826 14.9141L72.9296 15.3614L73.4876 14.8034C73.6633 14.9794 73.81 15.1261 73.935 15.2503L73.3769 15.8084L73.8241 16.2557L74.3891 15.6907C75.1956 16.4388 75.9315 16.7635 76.713 15.9823C77.1763 15.5187 77.1818 14.9007 76.9039 14.4657ZM76.5725 11.753C77.076 12.2565 77.8681 12.9174 77.2691 13.5166C76.6754 14.1101 76.1145 13.3956 75.5223 12.8034L76.5725 11.753ZM74.017 14.3085L75.0785 13.247C75.7411 13.9094 76.6442 14.6131 76.0054 15.2521C75.3908 15.8665 74.6363 14.9277 74.017 14.3085Z" fill="#FFCA10"/>
<path d="M57.8506 8.0381C57.8506 12.439 54.2829 16.0068 49.8818 16.0068C45.4808 16.0068 41.9131 12.439 41.9131 8.0381C41.9131 3.63703 45.4808 0.0693569 49.8818 0.0693569C54.2829 0.0693569 57.8506 3.63703 57.8506 8.0381Z" fill="#FFCA10"/>
<path d="M56.5225 8.03785C56.5225 11.7053 53.5493 14.6785 49.8818 14.6785C46.2144 14.6785 43.2412 11.7053 43.2412 8.03785C43.2412 4.37041 46.2144 1.39724 49.8818 1.39724C53.5493 1.39724 56.5225 4.37041 56.5225 8.03785Z" fill="#FFA200"/>
<path d="M43.5732 8.37025C43.5732 4.70281 46.5464 1.72964 50.2139 1.72964C51.963 1.72964 53.5495 2.41113 54.7356 3.51646C53.5232 2.2159 51.8001 1.39761 49.8818 1.39761C46.2144 1.39761 43.2412 4.37078 43.2412 8.03822C43.2412 9.95653 44.0595 11.6796 45.3602 12.8918C44.2547 11.7058 43.5732 10.1194 43.5732 8.37025Z" fill="#FF6C00"/>
<path d="M52.265 8.19756C52.7853 7.88213 53.0769 7.28198 53.0769 6.852C53.0769 5.54529 52.2574 5.00358 50.9882 4.86778V3.72145H50.1027V4.82844C49.8663 4.82579 49.5787 4.82528 49.2173 4.82561V3.72145H48.332V4.82711C48.0079 4.82778 47.6425 4.82827 47.2278 4.82827C47.0394 4.82827 46.8496 4.83574 46.8496 5.0172L47.0943 5.84014H47.8281V10.8996H47.0943L46.8496 11.7226C46.8496 11.8987 47.0272 11.9115 47.2278 11.9115C47.6374 11.9115 48.0033 11.912 48.332 11.9123V13.0183H49.2173V11.9136C49.5656 11.914 49.856 11.9141 50.1027 11.9133V13.0183H50.9882V11.8999C52.527 11.8418 53.5772 11.4349 53.5772 9.88776C53.5772 8.97019 52.9706 8.35295 52.265 8.19756ZM49.2517 5.84014C50.2485 5.84014 51.6868 5.71031 51.6868 6.89649C51.6868 8.07172 50.4243 7.91948 49.2517 7.91948V5.84014ZM49.2517 10.8996V8.79803C50.5631 8.79803 52.1538 8.60064 52.1538 9.86551C52.1538 11.0819 50.4774 10.8996 49.2517 10.8996Z" fill="#FF6C00"/>
<path d="M51.934 7.86577C52.4543 7.55034 52.7458 6.95019 52.7458 6.52021C52.7458 5.2135 51.9263 4.6718 50.6572 4.536V3.38966H49.7716V4.49666C49.5352 4.494 49.2477 4.49349 48.8863 4.49383V3.38966H48.0009V4.49533C47.6768 4.49599 47.3114 4.49649 46.8967 4.49649C46.7083 4.49649 46.5186 4.50395 46.5186 4.68541L46.7633 5.50835H47.4971V10.5678H46.7633L46.5186 11.3908C46.5186 11.5669 46.6962 11.5797 46.8967 11.5797C47.3063 11.5797 47.6722 11.5802 48.0009 11.5805V12.6865H48.8863V11.5819C49.2346 11.5822 49.5249 11.5824 49.7716 11.5815V12.6865H50.6572V11.5681C52.196 11.51 53.2462 11.1031 53.2462 9.55597C53.2462 8.63841 52.6396 8.02116 51.934 7.86577ZM48.9206 5.50835C49.9174 5.50835 51.3558 5.37853 51.3558 6.56471C51.3558 7.73993 50.0932 7.5877 48.9206 7.5877V5.50835ZM48.9206 10.5678V8.46625C50.232 8.46625 51.8228 8.26885 51.8228 9.53372C51.8228 10.7501 50.1463 10.5678 48.9206 10.5678Z" fill="#FFCA10"/>
<path d="M10.2 98.6C10.8667 98.92 11.3867 99.38 11.76 99.98C12.1467 100.58 12.34 101.26 12.34 102.02C12.34 103.153 11.9067 104.1 11.04 104.86C10.1733 105.62 9.09333 106 7.8 106H1.36V92H7.68C8.49333 92 9.22667 92.1533 9.88 92.46C10.5333 92.7667 11.0467 93.1933 11.42 93.74C11.7933 94.2867 11.98 94.9 11.98 95.58C11.98 96.1933 11.82 96.7733 11.5 97.32C11.18 97.8533 10.7467 98.28 10.2 98.6ZM8.32 96.22C8.32 95.86 8.2 95.5667 7.96 95.34C7.72 95.1133 7.4 95 7 95H5.06V97.44H7C7.26667 97.44 7.5 97.3933 7.7 97.3C7.9 97.1933 8.05333 97.0467 8.16 96.86C8.26667 96.6733 8.32 96.46 8.32 96.22ZM7.16 102.84C7.57333 102.84 7.90667 102.72 8.16 102.48C8.41333 102.24 8.54 101.933 8.54 101.56C8.54 101.187 8.41333 100.88 8.16 100.64C7.90667 100.4 7.57333 100.28 7.16 100.28H5.06V102.84H7.16Z" fill="#FFA200"/>
<path d="M32.1073 106H28.2273L27.1273 97.94L23.4273 106.02H22.2873L18.5673 97.94L17.4873 106H13.5873L15.7073 92H19.5473L22.8473 99.62L26.1673 92H30.0273L32.1073 106ZM34.0358 106V92H37.9358V106H34.0358ZM49.3969 92H53.1369V106H49.9569L44.3969 98.4V106H40.6569V92H44.0169L49.3969 99.34V92ZM55.8522 106V92H59.7522V106H55.8522ZM71.2133 92H74.9533V106H71.7733L66.2133 98.4V106H62.4733V92H65.8333L71.2133 99.34V92ZM84.0886 98.52H91.7686C91.7686 100.027 91.4619 101.38 90.8486 102.58C90.2353 103.767 89.3686 104.693 88.2486 105.36C87.1286 106.027 85.8486 106.36 84.4086 106.36C82.2486 106.36 80.4619 105.667 79.0486 104.28C77.6486 102.893 76.9486 101.14 76.9486 99.02C76.9486 96.8867 77.6419 95.1267 79.0286 93.74C80.4286 92.34 82.2086 91.64 84.3686 91.64C86.1953 91.64 87.7886 92.16 89.1486 93.2C90.5086 94.24 91.3353 95.5733 91.6286 97.2H87.5886C87.3353 96.6133 86.9153 96.1467 86.3286 95.8C85.7553 95.44 85.1153 95.26 84.4086 95.26C83.3553 95.26 82.5019 95.6067 81.8486 96.3C81.2086 96.9933 80.8886 97.9 80.8886 99.02C80.8886 99.74 81.0286 100.387 81.3086 100.96C81.6019 101.52 82.0153 101.96 82.5486 102.28C83.0819 102.587 83.7019 102.74 84.4086 102.74C85.1419 102.74 85.7953 102.58 86.3686 102.26C86.9553 101.927 87.3553 101.487 87.5686 100.94H84.0886V98.52Z" fill="#292929"/>
<mask id="mask0_2_75" style="mask-type:alpha" maskUnits="userSpaceOnUse" x="1" y="91" width="91" height="16">
<path d="M10.2 98.6C10.8667 98.92 11.3867 99.38 11.76 99.98C12.1467 100.58 12.34 101.26 12.34 102.02C12.34 103.153 11.9067 104.1 11.04 104.86C10.1733 105.62 9.09333 106 7.8 106H1.36V92H7.68C8.49333 92 9.22667 92.1533 9.88 92.46C10.5333 92.7667 11.0467 93.1933 11.42 93.74C11.7933 94.2867 11.98 94.9 11.98 95.58C11.98 96.1933 11.82 96.7733 11.5 97.32C11.18 97.8533 10.7467 98.28 10.2 98.6ZM8.32 96.22C8.32 95.86 8.2 95.5667 7.96 95.34C7.72 95.1133 7.4 95 7 95H5.06V97.44H7C7.26667 97.44 7.5 97.3933 7.7 97.3C7.9 97.1933 8.05333 97.0467 8.16 96.86C8.26667 96.6733 8.32 96.46 8.32 96.22ZM7.16 102.84C7.57333 102.84 7.90667 102.72 8.16 102.48C8.41333 102.24 8.54 101.933 8.54 101.56C8.54 101.187 8.41333 100.88 8.16 100.64C7.90667 100.4 7.57333 100.28 7.16 100.28H5.06V102.84H7.16Z" fill="#FFA200"/>
<path d="M32.1073 106H28.2273L27.1273 97.94L23.4273 106.02H22.2873L18.5673 97.94L17.4873 106H13.5873L15.7073 92H19.5473L22.8473 99.62L26.1673 92H30.0273L32.1073 106ZM34.0358 106V92H37.9358V106H34.0358ZM49.3969 92H53.1369V106H49.9569L44.3969 98.4V106H40.6569V92H44.0169L49.3969 99.34V92ZM55.8522 106V92H59.7522V106H55.8522ZM71.2133 92H74.9533V106H71.7733L66.2133 98.4V106H62.4733V92H65.8333L71.2133 99.34V92ZM84.0886 98.52H91.7686C91.7686 100.027 91.4619 101.38 90.8486 102.58C90.2353 103.767 89.3686 104.693 88.2486 105.36C87.1286 106.027 85.8486 106.36 84.4086 106.36C82.2486 106.36 80.4619 105.667 79.0486 104.28C77.6486 102.893 76.9486 101.14 76.9486 99.02C76.9486 96.8867 77.6419 95.1267 79.0286 93.74C80.4286 92.34 82.2086 91.64 84.3686 91.64C86.1953 91.64 87.7886 92.16 89.1486 93.2C90.5086 94.24 91.3353 95.5733 91.6286 97.2H87.5886C87.3353 96.6133 86.9153 96.1467 86.3286 95.8C85.7553 95.44 85.1153 95.26 84.4086 95.26C83.3553 95.26 82.5019 95.6067 81.8486 96.3C81.2086 96.9933 80.8886 97.9 80.8886 99.02C80.8886 99.74 81.0286 100.387 81.3086 100.96C81.6019 101.52 82.0153 101.96 82.5486 102.28C83.0819 102.587 83.7019 102.74 84.4086 102.74C85.1419 102.74 85.7953 102.58 86.3686 102.26C86.9553 101.927 87.3553 101.487 87.5686 100.94H84.0886V98.52Z" fill="#292929"/>
</mask>
<g mask="url(#mask0_2_75)">
<path d="M92.7593 107.236L17.877 88.5172L90.7624 86.0542L92.7593 107.236Z" fill="#3A3A3A"/>
</g>
</svg>
